<?xml version="1.0" standalone="no"?>
<!DOCTYPE svg PUBLIC "-//W3C//DTD SVG 20010904//EN"
 "http://www.w3.org/TR/2001/REC-SVG-20010904/DTD/svg10.dtd">
<svg version="1.0" xmlns="http://www.w3.org/2000/svg"
 width="700.000000pt" height="700.000000pt" viewBox="0 0 700.000000 700.000000"
 preserveAspectRatio="xMidYMid meet">
<metadata>
Created by potrace 1.14, written by Peter Selinger 2001-2017
</metadata>
<g transform="translate(0.000000,700.000000) scale(0.100000,-0.100000)"
fill="#000000" stroke="none">
<path d="M3460 6630 c-60 -12 -727 -351 -766 -389 -65 -65 -77 -173 -29 -256
28 -47 55 -71 104 -93 32 -14 117 -16 724 -17 735 -1 725 -2 792 49 96 74 106
231 20 317 -41 42 -720 384 -775 391 -19 3 -51 2 -70 -2z"/>
<path d="M1485 5650 c-98 -35 -709 -349 -735 -377 -61 -66 -60 -59 -60 -559
l1 -458 26 -48 c43 -79 151 -134 225 -113 97 27 153 79 175 165 5 19 9 140 9
268 -1 127 2 232 7 232 4 0 85 -39 179 -86 202 -101 250 -112 331 -74 116 55
161 184 102 299 -30 60 -45 71 -214 156 l-134 67 139 69 c194 97 234 142 234
266 0 139 -152 242 -285 193z"/>
<path d="M5365 5645 c-96 -40 -142 -117 -132 -225 9 -100 41 -133 221 -223
l150 -75 -142 -71 c-198 -99 -227 -132 -227 -256 0 -61 4 -77 28 -113 42 -65
96 -95 173 -98 63 -3 67 -1 244 86 100 50 184 90 188 90 4 0 7 -109 6 -242 0
-217 2 -248 18 -288 25 -60 53 -88 112 -116 97 -45 210 -13 272 78 l29 43 3
460 c2 296 0 472 -7 495 -24 80 -48 96 -433 288 -251 125 -376 182 -405 185
-29 3 -60 -3 -98 -18z"/>
<path d="M2790 4358 c-151 -41 -205 -251 -94 -362 16 -15 154 -91 307 -167
l277 -139 1 -63 c0 -34 0 -192 0 -351 0 -316 6 -354 57 -409 39 -41 97 -68
154 -71 92 -5 190 63 216 152 7 23 11 143 11 312 0 151 1 310 1 352 l0 78 275
137 c151 75 288 149 304 165 112 110 74 302 -71 356 -93 35 -112 29 -435 -133
l-293 -146 -292 146 c-306 151 -341 164 -418 143z"/>
<path d="M848 2900 c-54 -17 -99 -53 -128 -104 l-30 -51 0 -449 c0 -307 4
-461 11 -487 25 -82 45 -96 433 -289 333 -166 369 -182 418 -182 123 -2 218
94 218 219 0 54 -6 68 -71 183 -39 69 -85 152 -104 185 -38 70 -251 443 -264
465 -5 8 -63 110 -129 225 -66 116 -131 220 -144 231 -54 50 -147 74 -210 54z"/>
<path d="M6010 2889 c-56 -25 -86 -53 -113 -104 -20 -39 -21 -53 -22 -405 l0
-365 -277 -140 c-153 -77 -289 -151 -304 -165 -42 -40 -64 -93 -64 -155 0
-124 94 -218 217 -218 49 0 82 15 416 182 382 190 405 205 433 283 18 53 21
898 2 959 -13 44 -63 101 -111 125 -48 25 -125 26 -177 3z"/>
<path d="M3401 1589 c-49 -25 -96 -84 -110 -138 -6 -20 -10 -141 -10 -269 0
-129 -1 -235 -3 -237 -2 -2 -84 37 -183 86 -192 95 -239 108 -309 84 -116 -40
-175 -156 -140 -276 24 -79 56 -101 436 -291 372 -186 406 -198 478 -173 20 7
187 88 373 181 220 110 350 180 371 201 109 109 66 298 -80 352 -80 30 -118
21 -319 -79 -99 -49 -181 -88 -182 -86 -2 2 -4 114 -4 250 l-1 247 -27 52
c-39 75 -91 108 -178 114 -56 4 -76 0 -112 -18z"/>
</g>
</svg>
